# xmcd CD database file
#
# Track frame offsets:
#	150
#	20722
#	29281
#
# Disc length: 637 seconds
#
# Revision: 0
# Processed by: cddbd v1.5.1PL0 Copyright (c) Steve Scherf et al.
# Submitted via: CDex 1.51
#
DISCID=1d027b03
DTITLE=降神 - 望〜特典ＣＤ−Ｒ
DYEAR=1900
DGENRE=
TTITLE0=時計の針 Live Ver
TTITLE1=FreeStyle Live
TTITLE2=RollingGod Old Vre
EXTD=
EXTT0=
EXTT1=
EXTT2=
PLAYORDER=
